<svg width="24" height="24" viewBox="0 0 24 24" xmlns="http://www.w3.org/2000/svg"><path d="M853.333 469.334h-579.665l97.83 97.835c7.41 7.665 11.977 18.12 11.977 29.641 0 23.564-19.103 42.667-42.667 42.667-11.521 0-21.976-4.567-29.653-11.989l-170.655-170.655c-7.691-7.738-12.445-18.403-12.445-30.178s4.754-22.44 12.447-30.18l170.665-170.665c7.665-7.41 18.12-11.977 29.641-11.977 23.564 0 42.667 19.103 42.667 42.667 0 11.521-4.567 21.976-11.989 29.653l-97.818 97.848h579.665c23.564 0 42.667 19.103 42.667 42.667s-19.103 42.667-42.667 42.667v0z" /></svg>