<?xml version="1.0" encoding="UTF-8"?>
<svg width="21px" height="20px" viewBox="0 0 21 20" version="1.1" xmlns="http://www.w3.org/2000/svg" xmlns:xlink="http://www.w3.org/1999/xlink">
    <!-- Generator: Sketch 50.2 (55047) - http://www.bohemiancoding.com/sketch -->
    <title>basic</title>
    <desc>Created with Sketch.</desc>
    <defs></defs>
    <g id="Page-1" stroke="none" stroke-width="1" fill="none" fill-rule="evenodd">
        <g id="basic" fill="currentColor" fill-rule="nonzero">
            <path d="M5.14,5.49998691 L6.58,11.12 C6.63468807,11.341264 6.83209103,11.4975413 7.06,11.5 L17.47,11.5 C18.23,11.5 18.87,10.93 18.97,10.18 L19.47,6.06 C19.487247,5.91734513 19.4422857,5.77416557 19.3465835,5.66697905 C19.2508812,5.55979253 19.1136899,5.4989612 18.97,5.5 L5.14,5.49998691 Z M4.74,4 L18.97,4 C19.5412765,4.0015844 20.0846075,4.24739041 20.4629569,4.67542201 C20.8413063,5.10345362 21.0185556,5.67284973 20.95,6.24 L20.45,10.36 C20.2678092,11.8672874 18.9882582,13.0008493 17.47,13 L7.07,13 C6.15669753,13.0016017 5.35832456,12.384303 5.13,11.5 L4.94,10.78 C4.86799373,10.692606 4.81671147,10.5900414 4.79,10.48 L2.84,2.62 L0.51,1.73 C0.123400675,1.58088312 -0.0691168825,1.14659932 0.08,0.76 C0.229116882,0.373400675 0.663400675,0.180883118 1.05,0.33 L3.75,1.36 C3.98,1.45 4.15,1.64 4.21,1.88 L4.73,4 L4.74,4 Z M8,20 C6.34314575,20 5,18.6568542 5,17 C5,15.3431458 6.34314575,14 8,14 C9.65685425,14 11,15.3431458 11,17 C11,18.6568542 9.65685425,20 8,20 Z M16,20 C14.3431458,20 13,18.6568542 13,17 C13,15.3431458 14.3431458,14 16,14 C17.6568542,14 19,15.3431458 19,17 C19,18.6568542 17.6568542,20 16,20 Z M8,18.5 C8.82842712,18.5 9.5,17.8284271 9.5,17 C9.5,16.1715729 8.82842712,15.5 8,15.5 C7.17157288,15.5 6.5,16.1715729 6.5,17 C6.5,17.8284271 7.17157288,18.5 8,18.5 Z M16,18.5 C16.8284271,18.5 17.5,17.8284271 17.5,17 C17.5,16.1715729 16.8284271,15.5 16,15.5 C15.1715729,15.5 14.5,16.1715729 14.5,17 C14.5,17.8284271 15.1715729,18.5 16,18.5 Z" id="Shape"></path>
        </g>
    </g>
</svg>