<svg xmlns="http://www.w3.org/2000/svg" xmlns:xlink="http://www.w3.org/1999/xlink" width="24px" height="24px" viewBox="0 0 24 24" version="1.1"><g id="surface1"><path d="M 10.5 15.25 C 10.308594 15.234375 10.128906 15.144531 10 15 L 7 12 C 6.933594 11.859375 6.910156 11.703125 6.9375 11.550781 C 6.964844 11.398438 7.035156 11.257812 7.144531 11.148438 C 7.257812 11.035156 7.398438 10.964844 7.550781 10.9375 C 7.703125 10.910156 7.859375 10.933594 8 11 L 10.46875 13.46875 L 19 5 C 19.140625 4.933594 19.296875 4.910156 19.449219 4.9375 C 19.601562 4.964844 19.742188 5.035156 19.851562 5.148438 C 19.964844 5.257812 20.035156 5.398438 20.0625 5.550781 C 20.089844 5.703125 20.066406 5.859375 20 6 L 11 15 C 10.871094 15.144531 10.691406 15.234375 10.5 15.25 Z M 10.5 15.25 " fill="currentColor" fill-rule="nonzero"/><path d="M 12 21 C 10.390625 20.996094 8.8125 20.5625 7.429688 19.746094 C 6.042969 18.925781 4.90625 17.75 4.128906 16.339844 C 3.539062 15.289062 3.175781 14.128906 3.058594 12.929688 C 2.878906 11.171875 3.214844 9.398438 4.035156 7.832031 C 4.851562 6.265625 6.113281 4.972656 7.660156 4.121094 C 8.710938 3.53125 9.871094 3.164062 11.070312 3.050781 C 12.265625 2.921875 13.472656 3.039062 14.621094 3.390625 C 14.722656 3.410156 14.820312 3.453125 14.90625 3.511719 C 14.992188 3.574219 15.0625 3.648438 15.117188 3.738281 C 15.167969 3.828125 15.203125 3.929688 15.21875 4.03125 C 15.230469 4.136719 15.222656 4.242188 15.191406 4.339844 C 15.160156 4.441406 15.109375 4.535156 15.042969 4.613281 C 14.972656 4.691406 14.890625 4.757812 14.796875 4.800781 C 14.703125 4.847656 14.597656 4.871094 14.496094 4.875 C 14.390625 4.878906 14.285156 4.859375 14.191406 4.820312 C 13.21875 4.527344 12.199219 4.433594 11.191406 4.539062 C 10.191406 4.640625 9.226562 4.945312 8.351562 5.429688 C 7.503906 5.894531 6.757812 6.519531 6.148438 7.269531 C 5.523438 8.03125 5.054688 8.914062 4.773438 9.859375 C 4.492188 10.804688 4.402344 11.796875 4.511719 12.78125 C 4.613281 13.777344 4.914062 14.742188 5.398438 15.621094 C 5.867188 16.464844 6.492188 17.210938 7.238281 17.820312 C 8.003906 18.445312 8.882812 18.914062 9.828125 19.195312 C 10.777344 19.476562 11.769531 19.566406 12.75 19.460938 C 13.746094 19.359375 14.714844 19.054688 15.589844 18.570312 C 16.433594 18.105469 17.183594 17.480469 17.789062 16.730469 C 18.417969 15.96875 18.882812 15.085938 19.164062 14.140625 C 19.445312 13.195312 19.535156 12.203125 19.429688 11.21875 C 19.421875 11.117188 19.429688 11.011719 19.460938 10.914062 C 19.492188 10.816406 19.539062 10.722656 19.605469 10.644531 C 19.671875 10.5625 19.753906 10.496094 19.84375 10.449219 C 19.9375 10.398438 20.035156 10.371094 20.140625 10.359375 C 20.242188 10.351562 20.347656 10.359375 20.445312 10.390625 C 20.546875 10.421875 20.636719 10.472656 20.71875 10.535156 C 20.796875 10.601562 20.863281 10.683594 20.910156 10.773438 C 20.960938 10.867188 20.988281 10.96875 21 11.070312 C 21.183594 12.828125 20.84375 14.601562 20.023438 16.167969 C 19.203125 17.734375 17.9375 19.027344 16.390625 19.878906 C 15.328125 20.492188 14.148438 20.875 12.929688 21 C 12.621094 21 12.300781 21 12 21 Z M 12 21 " fill="currentColor" fill-rule="nonzero"/></g></svg>