<svg width="24" height="24" viewBox="0 0 24 24" fill="none" xmlns="http://www.w3.org/2000/svg"><path fill-rule="evenodd" clip-rule="evenodd" d="M4 18.5a.5.5 0 0 1-.5-.5V5a.5.5 0 0 1 .5-.5h6.5c.275 0 .5.225.5.5v13.5H4Zm8.5 1.497V20H4a2 2 0 0 1-2-2V5a2 2 0 0 1 2-2h6.5c1.102 0 2 .895 2 2v3.997h2L20 9c1.105 0 2 .892 2 2v7l-1.5-.001V11c0-.278-.222-.5-.5-.5l-3.126-.001-4.374-.002v8l7.5.003a.5.5 0 0 0 .5-.5H22a2 2 0 0 1-2 2l-7.5-.003ZM5 7.497h4.5v-1.5H5v1.5Zm0 3h4.5v-1.5H5v1.5Zm4.5 3H5v-1.5h4.5v1.5Zm-4.5 3h4.5v-1.5H5v1.5Zm11-3h-2v-1.5h2v1.5Zm0 3h-2v-1.5h2v1.5Zm3-3h-2v-1.5h2v1.5Zm0 3h-2v-1.5h2v1.5Z" fill="currentColor"></path></svg>