<svg xmlns="http://www.w3.org/2000/svg" xmlns:xlink="http://www.w3.org/1999/xlink" width="24px" height="24px" viewBox="0 0 24 24" version="1.1"><g id="surface1"><path  fill="currentColor" d="M 6.507812 2 C 4.019531 2 2 4.019531 2 6.507812 L 2 17.492188 C 2 19.980469 4.019531 22 6.507812 22 L 11.851562 22 C 12.320312 22 12.699219 21.621094 12.699219 21.152344 C 12.699219 20.679688 12.320312 20.300781 11.851562 20.300781 L 6.507812 20.300781 C 4.957031 20.300781 3.699219 19.042969 3.699219 17.492188 L 3.699219 6.507812 C 3.699219 4.957031 4.957031 3.699219 6.507812 3.699219 L 17.191406 3.699219 C 18.742188 3.699219 20 4.957031 20 6.507812 L 20 12 C 20 12.46875 20.382812 12.847656 20.851562 12.847656 C 21.320312 12.847656 21.699219 12.46875 21.699219 12 L 21.699219 6.507812 C 21.699219 4.019531 19.679688 2 17.191406 2 Z M 7.003906 11.148438 C 6.535156 11.148438 6.152344 11.53125 6.152344 12 C 6.152344 12.46875 6.535156 12.847656 7.003906 12.847656 L 10 12.847656 C 10.472656 12.847656 10.851562 12.46875 10.851562 12 C 10.851562 11.53125 10.472656 11.148438 10 11.148438 Z M 6.152344 8.003906 C 6.152344 7.53125 6.535156 7.152344 7.003906 7.152344 L 13 7.152344 C 13.46875 7.152344 13.847656 7.53125 13.847656 8.003906 C 13.847656 8.472656 13.46875 8.851562 13 8.851562 L 7.003906 8.851562 C 6.535156 8.851562 6.152344 8.472656 6.152344 8.003906 Z M 19.433594 13.292969 C 18.90625 12.753906 18.050781 12.753906 17.523438 13.292969 L 13.765625 17.109375 C 13.476562 17.40625 13.335938 17.816406 13.378906 18.230469 L 13.59375 20.226562 C 13.652344 20.746094 14.054688 21.15625 14.566406 21.210938 L 16.527344 21.429688 C 16.933594 21.476562 17.339844 21.332031 17.628906 21.035156 L 21.386719 17.21875 C 21.914062 16.679688 21.914062 15.8125 21.386719 15.277344 Z M 15.074219 18.207031 L 18.476562 14.742188 L 19.957031 16.246094 L 16.550781 19.710938 L 15.21875 19.5625 Z M 15.074219 18.207031 "/></g></svg>