<?xml version="1.0" encoding="UTF-8"?>
<svg width="854px" height="854px" viewBox="0 0 854 854" version="1.1" xmlns="http://www.w3.org/2000/svg" xmlns:xlink="http://www.w3.org/1999/xlink">
    <!-- Generator: Sketch 50.2 (55047) - http://www.bohemiancoding.com/sketch -->
    <title>basic</title>
    <desc>Created with Sketch.</desc>
    <defs></defs>
    <g id="Page-1" stroke="none" stroke-width="1" fill="none" fill-rule="evenodd">
        <g id="basic" fill="#000000" fill-rule="nonzero">
            <path d="M853.667,618.667 C853.667,618.666 853.667,618.664 853.667,618.662 C853.667,602.055 844.179,587.663 830.327,580.613 L830.085,580.501 L446.085,388.501 C440.524,385.663 433.956,384 427,384 C420.044,384 413.476,385.663 407.672,388.613 L407.915,388.501 L23.915,580.501 C9.816,587.661 0.323,602.055 0.323,618.666 C0.323,635.277 9.816,649.671 23.672,656.719 L23.914,656.831 L407.914,848.831 C413.475,851.67 420.042,853.333 426.999,853.333 C433.956,853.333 440.523,851.67 446.327,848.719 L446.084,848.831 L830.084,656.831 C844.178,649.669 853.666,635.278 853.666,618.671 C853.666,618.669 853.666,618.667 853.666,618.666 L853.667,618.667 Z M446.085,4.502 L830.085,196.502 C844.181,203.664 853.671,218.057 853.671,234.667 C853.671,258.234 834.567,277.338 811,277.338 C804.043,277.338 797.475,275.673 791.673,272.72 L791.915,272.832 L427,90.377 L62.085,272.832 C56.525,275.673 49.957,277.338 43,277.338 C19.433,277.338 0.329,258.234 0.329,234.667 C0.329,218.057 9.819,203.664 23.673,196.614 L23.915,196.502 L407.915,4.502 C413.476,1.664 420.044,0.001 427,0.001 C433.956,0.001 440.524,1.664 446.328,4.614 L446.085,4.502 Z M446.085,196.502 L830.085,388.502 C844.181,395.664 853.671,410.057 853.671,426.667 C853.671,450.234 834.567,469.338 811,469.338 C804.043,469.338 797.475,467.673 791.673,464.72 L791.915,464.832 L427,282.377 L62.085,464.832 C56.525,467.673 49.957,469.338 43,469.338 C19.433,469.338 0.329,450.234 0.329,426.667 C0.329,410.057 9.819,395.664 23.673,388.614 L23.915,388.502 L407.915,196.502 C413.476,193.664 420.044,192.001 427,192.001 C433.956,192.001 440.524,193.664 446.328,196.614 L446.085,196.502 Z" id="Shape"></path>
        </g>
    </g>
</svg>