<?xml version="1.0" encoding="UTF-8"?>
<svg width="21px" height="20px" viewBox="0 0 21 20" version="1.1" xmlns="http://www.w3.org/2000/svg" xmlns:xlink="http://www.w3.org/1999/xlink">
    <!-- Generator: Sketch 50.2 (55047) - http://www.bohemiancoding.com/sketch -->
    <title>basic</title>
    <desc>Created with Sketch.</desc>
    <defs></defs>
    <g id="Page-1" stroke="none" stroke-width="1" fill="none" fill-rule="evenodd">
        <g id="basic" fill="currentColor" fill-rule="nonzero">
            <path d="M0,4.5 C0,2.015625 2.015625,0 4.5,0 L10,0 C12.210938,0 14,1.789062 14,4 L14,5 C14,5.550781 13.550781,6 13,6 C12.449219,6 12,5.550781 12,5 L12,4 C12,2.894531 11.105469,2 10,2 L4.5,2 C3.121094,2 2,3.121094 2,4.5 L2,15.5 C2,16.878906 3.121094,18 4.5,18 L10,18 C11.105469,18 12,17.105469 12,16 L12,15 C12,14.449219 12.449219,14 13,14 C13.550781,14 14,14.449219 14,15 L14,16 C14,18.210938 12.210938,20 10,20 L4.5,20 C2.015625,20 0,17.984375 0,15.5 L0,4.5 Z M16.292969,6.292969 C16.683594,5.902344 17.316406,5.902344 17.707031,6.292969 L20.707031,9.292969 C21.097656,9.683594 21.097656,10.316406 20.707031,10.707031 L17.707031,13.707031 C17.316406,14.097656 16.683594,14.097656 16.292969,13.707031 C15.902344,13.316406 15.902344,12.683594 16.292969,12.292969 L17.585938,11 L9,11 C8.449219,11 8,10.550781 8,10 C8,9.449219 8.449219,9 9,9 L17.585938,9 L16.292969,7.707031 C15.902344,7.316406 15.902344,6.683594 16.292969,6.292969 Z" id="Shape"></path>
        </g>
    </g>
</svg>