<svg xmlns="http://www.w3.org/2000/svg" xmlns:xlink="http://www.w3.org/1999/xlink" width="24px" height="24px" viewBox="0 0 24 24" version="1.1"><g id="surface1" fill="currentColor" fill-rule="nonzero"><path d="M 18 11 L 13 11 L 13 6 C 13 5.449219 12.550781 5 12 5 C 11.449219 5 11 5.449219 11 6 L 11 11 L 6 11 C 5.449219 11 5 11.449219 5 12 C 5 12.550781 5.449219 13 6 13 L 11 13 L 11 18 C 11 18.550781 11.449219 19 12 19 C 12.550781 19 13 18.550781 13 18 L 13 13 L 18 13 C 18.550781 13 19 12.550781 19 12 C 19 11.449219 18.550781 11 18 11 Z M 18 11 "/></g></svg>