<?xml version="1.0" encoding="UTF-8"?>
<svg width="854px" height="854px" viewBox="0 0 854 854" version="1.1" xmlns="http://www.w3.org/2000/svg" xmlns:xlink="http://www.w3.org/1999/xlink">
    <!-- Generator: Sketch 50.2 (55047) - http://www.bohemiancoding.com/sketch -->
    <title>basic</title>
    <desc>Created with Sketch.</desc>
    <defs></defs>
    <g id="Page-1" stroke="none" stroke-width="1" fill="none" fill-rule="evenodd">
        <g id="basic" fill="#000000" fill-rule="nonzero">
            <path d="M0.333,470.334 L0.333,513.001 C0.476,630.764 95.903,726.191 213.653,726.334 L707.999,726.334 L652.835,781.502 C645.425,789.167 640.858,799.622 640.858,811.143 C640.858,834.707 659.961,853.81 683.525,853.81 C695.046,853.81 705.501,849.243 713.178,841.821 L841.111,713.888 C848.831,706.147 853.604,695.465 853.604,683.667 C853.604,671.869 848.831,661.187 841.11,653.445 L713.166,525.501 C705.501,518.091 695.046,513.524 683.525,513.524 C659.961,513.524 640.858,532.627 640.858,556.191 C640.858,567.712 645.425,578.167 652.847,585.844 L707.999,641 L213.667,641 C143.007,640.92 85.747,583.66 85.667,513.008 L85.667,470.333 C85.667,446.769 66.564,427.666 43,427.666 C19.436,427.666 0.333,446.769 0.333,470.333 L0.333,470.334 Z M811,427.667 C787.436,427.667 768.333,408.564 768.333,385 L768.333,342.333 C768.253,271.673 710.993,214.413 640.341,214.333 L146.002,214.333 L201.166,269.501 C208.576,277.166 213.143,287.621 213.143,299.142 C213.143,322.706 194.04,341.809 170.476,341.809 C158.955,341.809 148.5,337.242 140.823,329.82 L12.89,201.887 C5.168,194.147 0.394,183.464 0.394,171.666 C0.394,159.868 5.169,149.185 12.891,141.444 L140.835,13.5 C148.604,5.464 159.482,0.474 171.525,0.474 C195.089,0.474 214.192,19.577 214.192,43.141 C214.192,55.184 209.203,66.061 201.178,73.819 L146.002,128.999 L640.334,128.999 C758.097,129.142 853.524,224.569 853.667,342.319 L853.667,385 C853.667,408.564 834.564,427.667 811,427.667 Z" id="Shape"></path>
        </g>
    </g>
</svg>