<?xml version="1.0" encoding="UTF-8"?>
<svg width="940px" height="892px" viewBox="0 0 940 892" version="1.1" xmlns="http://www.w3.org/2000/svg" xmlns:xlink="http://www.w3.org/1999/xlink">
    <!-- Generator: Sketch 50.2 (55047) - http://www.bohemiancoding.com/sketch -->
    <title>basic</title>
    <desc>Created with Sketch.</desc>
    <defs></defs>
    <g id="Page-1" stroke="none" stroke-width="1" fill="none" fill-rule="evenodd">
        <g id="basic" transform="translate(470.000000, 446.000000) scale(1, -1) translate(-470.000000, -446.000000) " fill="#000000" fill-rule="nonzero">
            <path d="M43.333,0.355 C19.769,0.356 0.667,19.458 0.667,43.022 C0.667,48.115 1.559,52.999 3.196,57.527 L3.102,57.23 L87.125,295.084 C62.486,345.619 48.081,405.032 48.081,467.809 C48.081,467.934 48.081,468.059 48.081,468.185 L48.081,468.166 C49.566,635.905 149.443,779.96 292.738,845.548 L295.351,846.62 C351.433,874.631 417.524,891.027 487.444,891.027 C489.683,891.027 491.918,891.01 494.149,890.977 L493.811,890.981 L517.414,890.981 C739.961,885.36 920.532,713.032 939.158,494.505 L939.268,492.901 L939.332,468.043 C939.332,468.005 939.332,467.959 939.332,467.914 C939.332,398.332 921.664,332.877 890.57,275.789 L891.622,277.899 C814.392,138.142 667.901,45.066 499.67,45.066 C497.581,45.066 495.496,45.08 493.414,45.109 L493.73,45.106 L492.518,45.106 C426.851,45.149 364.403,58.88 307.855,83.598 L310.83,82.439 L56.131,2.315 C52.305,1.076 47.902,0.36 43.333,0.357 L43.331,0.357 L43.333,0.355 Z M492.835,805.646 C492.806,805.646 492.771,805.646 492.736,805.646 C434.308,805.646 378.994,792.315 329.669,768.53 L331.918,769.507 C215.183,716.669 135.084,601.892 133.418,468.222 L133.416,468.007 C133.416,467.946 133.416,467.874 133.416,467.802 C133.416,413.005 147.343,361.462 171.85,316.517 L171.023,318.174 C174.209,312.345 176.083,305.404 176.083,298.026 C176.083,292.934 175.19,288.05 173.553,283.522 L173.647,283.819 L112.028,109.355 L300.755,168.73 C304.583,169.986 308.988,170.71 313.563,170.71 C320.231,170.71 326.539,169.172 332.153,166.431 L331.902,166.542 C379.293,143.931 434.874,130.641 493.539,130.438 L493.609,130.438 C495.353,130.408 497.41,130.39 499.472,130.39 C635.311,130.39 753.642,205.35 815.357,316.161 L816.297,318 C840.038,361.35 854.002,412.977 854.002,467.865 C854.002,467.883 854.002,467.902 854.002,467.92 L854.002,467.917 L854.002,490.394 C837.072,665.428 692.656,801.703 515.586,805.694 L515.191,805.701 L493.713,805.637 L492.835,805.646 Z M512.667,443.269 C512.667,466.833 493.564,485.936 470,485.936 C446.436,485.936 427.333,466.833 427.333,443.269 C427.333,419.705 446.436,400.602 470,400.602 C493.554,400.626 512.642,419.714 512.667,443.266 L512.667,443.268 L512.667,443.269 Z M683.333,443.269 C683.333,466.833 664.23,485.936 640.666,485.936 C617.102,485.936 597.999,466.833 597.999,443.269 C597.999,419.705 617.102,400.602 640.666,400.602 C664.22,400.626 683.308,419.714 683.333,443.266 L683.333,443.268 L683.333,443.269 Z M342,443.269 C342,466.833 322.897,485.936 299.333,485.936 C275.769,485.936 256.666,466.833 256.666,443.269 C256.666,419.705 275.769,400.602 299.333,400.602 C322.887,400.626 341.975,419.714 342,443.266 L342,443.268 L342,443.269 Z" id="Shape"></path>
        </g>
    </g>
</svg>