<?xml version="1.0" encoding="UTF-8"?>
<svg width="428px" height="429px" viewBox="0 0 428 429" version="1.1" xmlns="http://www.w3.org/2000/svg" xmlns:xlink="http://www.w3.org/1999/xlink">
    <!-- Generator: Sketch 50.2 (55047) - http://www.bohemiancoding.com/sketch -->
    <title>basic</title>
    <desc>Created with Sketch.</desc>
    <defs></defs>
    <g id="Page-1" stroke="none" stroke-width="1" fill="none" fill-rule="evenodd">
        <g id="basic" fill="#000000" fill-rule="nonzero">
            <path d="M414.832,74.166 C422.868,66.397 427.858,55.519 427.858,43.476 C427.858,19.912 408.755,0.809 385.191,0.809 C373.148,0.809 362.271,5.798 354.513,13.823 L214,154.332 L73.499,13.835 C65.73,5.799 54.852,0.809 42.809,0.809 C19.245,0.809 0.142,19.912 0.142,43.476 C0.142,55.519 5.131,66.396 13.156,74.154 L153.665,214.667 L13.168,355.168 C5.132,362.937 0.142,373.815 0.142,385.858 C0.142,409.422 19.245,428.525 42.809,428.525 C54.852,428.525 65.729,423.536 73.487,415.511 L214,275.002 L354.501,415.499 C362.27,423.535 373.148,428.525 385.191,428.525 C408.755,428.525 427.858,409.422 427.858,385.858 C427.858,373.815 422.869,362.938 414.844,355.18 L274.335,214.667 L414.832,74.166 Z" id="Shape"></path>
        </g>
    </g>
</svg>