<?xml version="1.0" encoding="UTF-8"?>
<svg width="854px" height="854px" viewBox="0 0 854 854" version="1.1" xmlns="http://www.w3.org/2000/svg" xmlns:xlink="http://www.w3.org/1999/xlink">
    <!-- Generator: Sketch 50.2 (55047) - http://www.bohemiancoding.com/sketch -->
    <title>basic</title>
    <desc>Created with Sketch.</desc>
    <defs></defs>
    <g id="Page-1" stroke="none" stroke-width="1" fill="none" fill-rule="evenodd">
        <g id="basic" fill="#000000" fill-rule="nonzero">
            <path d="M427,0 C191.359,0 0.333,191.025 0.333,426.667 C0.333,662.309 191.358,853.334 427,853.334 C662.641,853.334 853.667,662.309 853.667,426.667 C853.398,191.134 662.533,0.27 427.026,0 L427,0 Z M427,768 C238.487,768 85.667,615.18 85.667,426.667 C85.667,238.154 238.487,85.334 427,85.334 C615.513,85.334 768.333,238.154 768.333,426.667 C768.11,615.09 615.423,767.777 427.021,768 L426.999,768 L427,768 Z M487.335,426.667 L585.165,524.502 C592.575,532.167 597.142,542.622 597.142,554.143 C597.142,577.707 578.039,596.81 554.475,596.81 C542.954,596.81 532.499,592.243 524.822,584.821 L426.999,487.003 L329.164,584.833 C321.499,592.243 311.044,596.81 299.523,596.81 C275.959,596.81 256.856,577.707 256.856,554.143 C256.856,542.622 261.423,532.167 268.845,524.49 L366.663,426.667 L268.833,328.832 C260.797,321.063 255.807,310.185 255.807,298.142 C255.807,274.578 274.91,255.475 298.474,255.475 C310.517,255.475 321.394,260.464 329.152,268.489 L426.999,366.331 L524.834,268.501 C532.499,261.091 542.954,256.524 554.475,256.524 C578.039,256.524 597.142,275.627 597.142,299.191 C597.142,310.712 592.575,321.167 585.153,328.844 L585.165,328.832 L487.335,426.667 Z" id="Shape"></path>
        </g>
    </g>
</svg>