<?xml version="1.0" encoding="UTF-8"?>
<svg width="24px" height="19px" viewBox="0 0 24 19" version="1.1" xmlns="http://www.w3.org/2000/svg" xmlns:xlink="http://www.w3.org/1999/xlink">
    <!-- Generator: Sketch 50.2 (55047) - http://www.bohemiancoding.com/sketch -->
    <title>basic</title>
    <desc>Created with Sketch.</desc>
    <defs></defs>
    <g id="Page-1" stroke="none" stroke-width="1" fill="none" fill-rule="evenodd">
        <g id="basic" fill="currentColor" fill-rule="nonzero">
            <path d="M5.75,10.75 C6.16421356,10.75 6.5,11.0857864 6.5,11.5 C6.5,11.9142136 6.16421356,12.25 5.75,12.25 L4,12.25 L4,14 C4,14.4142136 3.66421356,14.75 3.25,14.75 C2.83578644,14.75 2.5,14.4142136 2.5,14 L2.5,12.25 L0.75,12.25 C0.335786438,12.25 5.07265313e-17,11.9142136 0,11.5 C-5.07265313e-17,11.0857864 0.335786438,10.75 0.75,10.75 L2.5,10.75 L2.5,9 C2.5,8.58578644 2.83578644,8.25 3.25,8.25 C3.66421356,8.25 4,8.58578644 4,9 L4,10.75 L5.75,10.75 Z M19.35,14.49 C19.3928414,14.4980457 19.4364321,14.5013989 19.48,14.5 L22.5,14.5 C22.5044545,14.1818097 22.3199004,13.8912352 22.03,13.76 L19.47,12.64 C18.9216169,12.4006703 18.5679165,11.8583297 18.57,11.26 L18.57,10.75 C18.5686543,10.2547016 18.8118975,9.79066831 19.22,9.51 C20.18,8.85 20.92,7.04 20.92,5.25 C20.92,3.32 20.12,2.5 18.48,2.5 C18.33,2.5 18.18,2.5 18.05,2.52 C17.8846039,2.0223478 17.6488841,1.55090817 17.35,1.12 C17.53,1.09 18.15,1 18.48,1 C20.88,1 22.43,2.41 22.43,5.25 C22.43,6.95 21.77,7.93 20.89,9.98 L20.07,10.75 L20.07,11.26 L22.63,12.39 C23.4631944,12.7611695 23.9999626,13.5878708 24,14.5 C24,15.3284271 23.3284271,16 22.5,16 L20.15,16 C20.0346324,15.4329298 19.7566528,14.9117181 19.35,14.5 L19.35,14.49 Z M14.53,13.22 L17.26,14.42 C18.3206882,14.8885943 19.0035895,15.9404194 19,17.1 L19,17.5 C19,18.3284271 18.3284271,19 17.5,19 L6.5,19 C5.67157288,19 5,18.3284271 5,17.5 L5,17.1 C5,15.94 5.69,14.9 6.75,14.44 L9.5,13.26 L9.5,12.02 C7.92,10.62 7,7.99 7,5.5 C7,1.9 8.91,0 11.97,0 C15.03,0 17,1.79 17,5.38 C17,7.82 16.08,10.48 14.53,11.92 L14.53,13.22 Z M13.03,11.92 C13.0299494,11.5025124 13.2038931,11.1038915 13.51,10.82 C14.69,9.72 15.5,7.52 15.5,5.38 C15.5,2.72 14.3,1.5 11.97,1.5 C9.7,1.5 8.5,2.79 8.5,5.5 C8.5,7.68 9.31,9.86 10.49,10.89 C10.8149876,11.1755056 11.0008937,11.5874152 11,12.02 L11,13.26 C11.0020835,13.8583297 10.6483831,14.4006703 10.1,14.64 L7.34,15.82 C6.8290813,16.0401253 6.49862309,16.5436807 6.5,17.1 L6.49999571,17.5 L17.5,17.5 L17.5,17.1 C17.5,16.54 17.17,16.03 16.66,15.8 L13.92,14.59 C13.3788554,14.3491166 13.0301441,13.8123363 13.03,13.22 L13.03,11.92 Z" id="Shape"></path>
        </g>
    </g>
</svg>